<svg xmlns="http://www.w3.org/2000/svg" width="27.648" height="29.858" viewBox="0 0 27.648 29.858">
  <path id="ic_timer_24px" d="M21.432,1H12.216V3.844h9.216ZM15.288,19.484H18.36V10.953H15.288Zm12.334-9.4L29.8,8.066a16.4,16.4,0,0,0-2.166-2L25.456,8.081a14.468,14.468,0,0,0-8.632-2.815C9.19,5.265,3,11,3,18.062s6.175,12.8,13.824,12.8,13.824-5.73,13.824-12.8a12.168,12.168,0,0,0-3.026-7.976Zm-10.8,17.929c-5.944,0-10.752-4.45-10.752-9.953S10.88,8.109,16.824,8.109s10.752,4.45,10.752,9.953S22.768,28.014,16.824,28.014Z" transform="translate(-3 -1)" fill="#5c5656"/>
</svg>
