<svg xmlns="http://www.w3.org/2000/svg" width="22.475" height="18.951" viewBox="0 0 22.475 18.951">
  <g id="logout" transform="translate(1.305 -0.332)">
    <path id="Union_35" data-name="Union 35" d="M-2117.962-4353.77l-4.074-3.188a.511.511,0,0,1,0-.846l4.074-3.188a.918.918,0,0,1,1.08,0,.513.513,0,0,1,0,.846l-2.218,1.736h12.31c.381,0,.689.461.689,1.03s-.309,1.03-.689,1.03h-12.31l2.218,1.736a.512.512,0,0,1,0,.846.888.888,0,0,1-.541.174A.875.875,0,0,1-2117.962-4353.77Z" transform="translate(2127.271 4367.36)" fill="rgba(255,255,255,0.8)"/>
    <path id="Path_205" data-name="Path 205" d="M9.513,19.283A9.476,9.476,0,1,1,18.366,6.341a.648.648,0,0,1-1.207.473,8.183,8.183,0,1,0,0,5.988.648.648,0,0,1,1.207.473A9.464,9.464,0,0,1,9.513,19.283Zm0,0" transform="translate(-1.305)" fill="rgba(255,255,255,0.8)"/>
  </g>
</svg>
