<svg xmlns="http://www.w3.org/2000/svg" width="27.78" height="23.927" viewBox="0 0 27.78 23.927">
  <path id="Icon_awesome-image" data-name="Icon awesome-image" d="M25.176,28.427H2.6A2.818,2.818,0,0,1,0,25.436V7.491A2.818,2.818,0,0,1,2.6,4.5H25.176a2.818,2.818,0,0,1,2.6,2.991V25.436A2.818,2.818,0,0,1,25.176,28.427ZM6.077,7.989a3.287,3.287,0,0,0-3.038,3.489,3.287,3.287,0,0,0,3.038,3.489,3.287,3.287,0,0,0,3.038-3.489A3.287,3.287,0,0,0,6.077,7.989Zm-2.6,16.45H24.307V17.461l-4.748-5.453a.593.593,0,0,0-.921,0l-7.353,8.444L8.273,16.992a.593.593,0,0,0-.921,0l-3.88,4.456Z" transform="translate(0 -4.5)" fill="#ccc"/>
</svg>
