<svg xmlns="http://www.w3.org/2000/svg" width="26.597" height="23.893" viewBox="0 0 26.597 23.893">
  <g id="promotion" transform="translate(0 -29.98)">
    <path id="Path_221" data-name="Path 221" d="M4.411,39.119l2.314,4.12a1.814,1.814,0,0,0,2.511.692,1.917,1.917,0,0,0,.673-2.581L8.53,38.895l1.194-.708a.48.48,0,0,0,.168-.645l-.6-1.064L18.1,34.7a1.419,1.419,0,0,0,1.117-2.123l-1.527-2.719.976-1.519a.484.484,0,0,0,.015-.5l-.919-1.636a.458.458,0,0,0-.426-.235l-1.768.109-1.7-3.019a1.361,1.361,0,0,0-1.177-.708h-.018a1.358,1.358,0,0,0-1.161.653l-6,7.86-3.9,2.316A3.359,3.359,0,0,0,.431,37.7,3.178,3.178,0,0,0,4.411,39.119Zm4.7,2.7a.959.959,0,0,1-.337,1.29.907.907,0,0,1-1.255-.346l-2.3-4.091,1.592-.945ZM8.071,38.077l-.46-.818.8-.472.46.818ZM17.1,26.934l.635,1.131-.566.882L16.079,27Zm-4.821-3.407a.453.453,0,0,1,.79.009l5.345,9.516a.473.473,0,0,1-.387.708,1.645,1.645,0,0,0-.252.044L12.126,23.738C12.244,23.582,12.26,23.566,12.283,23.527Zm-.769,1.012L16.826,34,8.809,35.613l-2.438-4.34ZM1.227,37.229a2.409,2.409,0,0,1-.308-1.178A2.383,2.383,0,0,1,2.068,34L5.65,31.878l2.3,4.09L4.366,38.094A2.267,2.267,0,0,1,1.227,37.229Zm0,0" transform="translate(0 9.689)" fill="rgba(255,255,255,0.8)"/>
    <path id="Path_223" data-name="Path 223" d="M439.589,42.545l-3.034,1.571a.489.489,0,0,0-.211.689.566.566,0,0,0,.741.2l3.034-1.571a.488.488,0,0,0,.211-.689A.566.566,0,0,0,439.589,42.545Zm0,0" transform="translate(-413.8 -9.437)" fill="rgba(255,255,255,0.8)"/>
    <path id="Path_224" data-name="Path 224" d="M442.771,137.131l-2.042-.493a.537.537,0,0,0-.647.337.474.474,0,0,0,.374.584l2.042.493a.537.537,0,0,0,.647-.337A.474.474,0,0,0,442.771,137.131Zm0,0" transform="translate(-418.627 -96)" fill="rgba(255,255,255,0.8)"/>
    <path id="Path_225" data-name="Path 225" d="M384.087.388l-.576,2.019a.52.52,0,0,0,.393.64.56.56,0,0,0,.681-.369L385.16.658a.52.52,0,0,0-.393-.64A.56.56,0,0,0,384.087.388Zm0,0" transform="translate(-366.131 29.98)" fill="rgba(255,255,255,0.8)"/>
  </g>
</svg>
